HIERARCHY
ROOT Hips
{
	OFFSET -3.958830 18.904000 13.208200
	CHANNELS 6 Xposition Yposition Zposition Zrotation Yrotation Xrotation 
	JOINT LHipJoint
	{
		OFFSET 0.000000 0.000000 0.000000
		CHANNELS 3 Zrotation Yrotation Xrotation
		JOINT LeftUpLeg
		{
			OFFSET 1.800000 -1.400000 0.085000
			CHANNELS 3 Zrotation Yrotation Xrotation
			JOINT LeftLeg
			{
				OFFSET 2.215000 -6.000000 0.000000
				CHANNELS 3 Zrotation Yrotation Xrotation
				JOINT LeftFoot
				{
					OFFSET 2.500000 -6.900000 0.000000
					CHANNELS 3 Zrotation Yrotation Xrotation
					JOINT LeftToeBase
					{
						OFFSET 0.200000 -0.500000 1.950000
						CHANNELS 3 Zrotation Yrotation Xrotation
						End Site
						{
							OFFSET 0.000000 0.000000 0.000000
						}
					}
				}
			}
		}
	}
	JOINT RHipJoint
	{
		OFFSET 0.000000 0.000000 0.000000
		CHANNELS 3 Zrotation Yrotation Xrotation
		JOINT RightUpLeg
		{
			OFFSET -1.800000 -1.400000 0.085000
			CHANNELS 3 Zrotation Yrotation Xrotation
			JOINT RightLeg
			{
				OFFSET -2.215000 -6.000000 0.000000
				CHANNELS 3 Zrotation Yrotation Xrotation
				JOINT RightFoot
				{
					OFFSET -2.500000 -6.900000 0.000000
					CHANNELS 3 Zrotation Yrotation Xrotation
					JOINT RightToeBase
					{
						OFFSET -0.200000 -0.500000 1.950000
						CHANNELS 3 Zrotation Yrotation Xrotation
						End Site
						{
							OFFSET 0.000000 0.000000 0.000000
						}
					}
				}
			}
		}
	}
	JOINT LowerBack
	{
		OFFSET 0.000000 0.000000 0.000000
		CHANNELS 3 Zrotation Yrotation Xrotation
		JOINT Spine
		{
			OFFSET -0.087000 1.940000 -0.288900
			CHANNELS 3 Zrotation Yrotation Xrotation
			JOINT Spine1
			{
				OFFSET 0.000000 1.950000 0.060000
				CHANNELS 3 Zrotation Yrotation Xrotation
				JOINT Neck
				{
					OFFSET 0.000000 0.000000 0.000000
					CHANNELS 3 Zrotation Yrotation Xrotation
					JOINT Neck1
					{
						OFFSET 0.000000 1.600000 0.340000
						CHANNELS 3 Zrotation Yrotation Xrotation
						JOINT Head
						{
							OFFSET 0.000000 1.667000 -0.240000
							CHANNELS 3 Zrotation Yrotation Xrotation
							End Site
							{
								OFFSET 0.000000 0.000000 0.000000
							}
						}
					}
				}
				JOINT LeftShoulder
				{
					OFFSET 0.000000 0.000000 0.000000
					CHANNELS 3 Zrotation Yrotation Xrotation
					JOINT LeftArm
					{
						OFFSET 2.700000 1.550000 -0.730000
						CHANNELS 3 Zrotation Yrotation Xrotation
						JOINT LeftForeArm
						{
							OFFSET 5.450000 0.000000 0.000000
							CHANNELS 3 Zrotation Yrotation Xrotation
							JOINT LeftHand
							{
								OFFSET 3.450000 0.000000 0.000000
								CHANNELS 3 Zrotation Yrotation Xrotation
								JOINT LeftHandIndex1
								{
									OFFSET 0.750000 0.000000 0.000000
									CHANNELS 3 Zrotation Yrotation Xrotation
									End Site
									{
										OFFSET 0.000000 0.000000 0.000000
									}
								}
							}
						}
					}
				}
				JOINT RightShoulder
				{
					OFFSET 0.000000 0.000000 0.000000
					CHANNELS 3 Zrotation Yrotation Xrotation
					JOINT RightArm
					{
						OFFSET -2.700000 1.550000 -0.730000
						CHANNELS 3 Zrotation Yrotation Xrotation
						JOINT RightForeArm
						{
							OFFSET -5.450000 0.000000 0.000000
							CHANNELS 3 Zrotation Yrotation Xrotation
							JOINT RightHand
							{
								OFFSET -3.450000 0.000000 0.000000
								CHANNELS 3 Zrotation Yrotation Xrotation
								JOINT RightHandIndex1
								{
									OFFSET -0.750000 0.000000 0.000000
									CHANNELS 3 Zrotation Yrotation Xrotation
									End Site
									{
										OFFSET 0.000000 0.000000 0.000000
									}
								}
							}
						}
					}
				}
			}
		}
	}
}
MOTION
Frames: 8
Frame Time: 0.016667
0.013210 17.547230 -1.045600 -3.313226 -35.283030 2.711570 -15.230809 13.900282 2.654146 4.387163 -2.246137 -13.638592 -4.154923 7.020048 24.409312 -0.017731 5.491697 3.011248 -0.166910 -0.371090 -0.239560 18.175620 -10.637392 2.623694 -6.292540 1.811298 -22.277762 5.321256 -4.436942 14.253805 0.355205 -3.233931 3.395413 -0.048270 1.014890 0.431220 -3.073988 -2.904576 -6.512085 4.643784 -4.018163 2.593027 3.231064 -4.866037 8.990021 0.232857 -0.708857 -7.869440 -2.319214 7.366591 26.598712 -5.521200 10.149000 11.642980 -11.595746 -4.764384 3.690004 -34.171303 -12.765792 -0.273868 5.031500 -66.074465 -3.845286 -4.298893 3.451022 -0.287670 0.874290 -0.540660 0.301520 11.916160 4.026401 3.341904 31.587898 5.003899 -6.877368 1.748852 76.055616 -0.420185 1.740594 -2.196011 -0.261900 0.085910 0.150780 0.107230 
0.013720 17.548540 -1.045000 -3.249150 -35.225753 2.679865 -15.230804 13.904999 2.658269 4.349283 -2.238459 -13.602507 -4.180301 7.009263 24.322436 -0.023874 5.479913 3.011173 -0.159230 -0.361680 -0.233770 18.175171 -10.633458 2.621263 -6.333869 1.793657 -22.226272 5.269167 -4.406986 14.138299 0.351646 -3.220046 3.396912 -0.042640 1.008140 0.430140 -3.073541 -2.924753 -6.517891 4.676695 -4.063809 2.588550 3.229827 -4.909094 9.087864 0.204634 -0.826053 -7.926310 -2.552719 7.471898 26.804193 -5.495680 10.136210 11.477590 -11.076515 -4.991315 3.725128 -33.750766 -13.296795 -0.067882 6.038017 -65.640926 -4.325336 -4.289093 3.436608 -0.282270 0.868070 -0.534740 0.300450 11.441921 4.333857 3.338874 30.750656 5.418945 -6.718181 0.585871 76.008326 -1.079030 1.733291 -2.179672 -0.260370 0.088530 0.149680 0.105510 
0.014240 17.549460 -1.044430 -3.153900 -35.152675 2.644776 -15.231835 13.908876 2.663699 4.288481 -2.235827 -13.579082 -4.213390 6.999346 24.240339 -0.029974 5.468968 3.011077 -0.149890 -0.351310 -0.227730 18.174099 -10.627491 2.617783 -6.407237 1.773452 -22.188193 5.224408 -4.376472 14.011543 0.348450 -3.206577 3.398077 -0.036080 1.002020 0.429550 -3.071114 -2.948505 -6.522743 4.675278 -4.109325 2.570752 3.243623 -4.954570 9.181291 0.158237 -0.952612 -7.982373 -2.803161 7.583032 26.983719 -5.413140 10.075960 11.313410 -10.535908 -5.209551 3.758990 -33.232968 -13.774838 0.149093 6.598402 -65.200328 -4.534198 -4.280203 3.429008 -0.277060 0.861820 -0.529520 0.300070 10.983202 4.641504 3.334666 29.836776 5.796897 -6.529402 -0.181723 75.898937 -1.459855 1.728311 -2.168677 -0.258480 0.090790 0.147960 0.104210 
0.014890 17.550650 -1.044090 -3.045396 -35.071213 2.597156 -15.233016 13.913781 2.670650 4.219152 -2.234219 -13.554229 -4.254013 6.991771 24.157754 -0.035603 5.456827 3.011576 -0.141420 -0.342020 -0.221150 18.172411 -10.621152 2.613954 -6.511550 1.747766 -22.151476 5.203777 -4.355688 13.892410 0.344459 -3.193929 3.399357 -0.031100 0.994220 0.427140 -3.066974 -2.975741 -6.529965 4.670417 -4.164025 2.568892 3.253338 -5.007362 9.265908 0.115848 -1.091779 -8.051442 -3.082424 7.678888 27.195230 -5.368320 10.024540 11.144520 -10.028625 -5.461998 3.798168 -32.590497 -14.170460 0.345545 6.778663 -64.740699 -4.512288 -4.270582 3.423721 -0.270090 0.853860 -0.523660 0.298930 10.548881 4.991621 3.352523 28.856401 6.123047 -6.336770 -0.556215 75.751775 -1.572550 1.726660 -2.159531 -0.257090 0.093650 0.146250 0.101970 
0.015450 17.552370 -1.044450 -2.949651 -35.009749 2.542921 -15.234229 13.921070 2.678535 4.172743 -2.225898 -13.514217 -4.316479 6.991925 24.055438 -0.039441 5.441236 3.010994 -0.133120 -0.331260 -0.213900 18.169988 -10.614844 2.611033 -6.595815 1.724324 -22.116295 5.178974 -4.336933 13.799191 0.338774 -3.177548 3.401040 -0.027120 0.982020 0.423170 -3.059959 -3.006286 -6.541294 4.657042 -4.217600 2.599365 3.289301 -5.060383 9.344134 0.078984 -1.236234 -8.143357 -3.380274 7.774866 27.475593 -5.328330 9.986840 10.924230 -9.550037 -5.758848 3.854965 -31.846548 -14.464204 0.509377 6.546287 -64.297409 -4.256135 -4.257479 3.421288 -0.260520 0.841720 -0.513660 0.296770 10.133803 5.393143 3.396008 27.802242 6.399526 -6.140655 -0.456467 75.584991 -1.365414 1.731201 -2.151502 -0.254570 0.096360 0.143690 0.099990 
0.015820 17.553980 -1.044510 -2.858523 -34.968447 2.497826 -15.234459 13.927421 2.685564 4.128082 -2.209698 -13.456467 -4.387833 6.989439 23.910876 -0.042039 5.420928 3.013463 -0.124240 -0.320030 -0.207500 18.168470 -10.608907 2.609467 -6.683457 1.704664 -22.100779 5.183648 -4.327415 13.729945 0.332813 -3.163791 3.402617 -0.023230 0.970750 0.418910 -3.056589 -3.033264 -6.552130 4.671250 -4.274200 2.625031 3.307919 -5.117088 9.412780 0.036969 -1.394382 -8.242693 -3.701116 7.895688 27.744325 -5.239170 9.935410 10.732170 -9.067028 -6.050176 3.919076 -31.030792 -14.669721 0.669051 5.893551 -63.890839 -3.766237 -4.244572 3.424957 -0.251530 0.829540 -0.504280 0.295930 9.723080 5.797551 3.443957 26.728630 6.676605 -5.901086 0.142315 75.384606 -0.819354 1.739048 -2.149550 -0.251590 0.099120 0.140140 0.098840 
0.015570 17.555770 -1.045170 -2.793994 -34.942516 2.469829 -15.234322 13.933758 2.692275 4.120421 -2.190211 -13.395208 -4.483477 6.994433 23.742640 -0.043846 5.399862 3.014937 -0.113620 -0.308120 -0.197970 18.167240 -10.602663 2.609245 -6.733108 1.694225 -22.097116 5.182471 -4.318698 13.688157 0.325674 -3.147925 3.404449 -0.020050 0.956270 0.415590 -3.053923 -3.059167 -6.564213 4.699475 -4.328734 2.654482 3.332882 -5.174192 9.478221 0.000752 -1.549528 -8.354083 -4.020686 8.032464 28.041233 -5.159020 9.922610 10.515020 -8.587484 -6.357937 3.989756 -30.166892 -14.825133 0.825860 4.863419 -63.471282 -3.066934 -4.230513 3.433231 -0.240810 0.815560 -0.492570 0.294510 9.304836 6.213947 3.504922 25.675748 6.952318 -5.641078 1.168864 75.087609 0.016350 1.750522 -2.150736 -0.247200 0.099800 0.135120 0.096630 
0.015220 17.557710 -1.046100 -2.731535 -34.901275 2.456542 -15.234314 13.940165 2.699009 4.118122 -2.169935 -13.339426 -4.581149 6.993742 23.542872 -0.046323 5.373989 3.017651 -0.102300 -0.295890 -0.187800 18.165942 -10.595873 2.609095 -6.779811 1.685936 -22.109173 5.187496 -4.315583 13.668479 0.317721 -3.132740 3.406020 -0.017380 0.940750 0.413100 -3.050926 -3.085925 -6.576052 4.726760 -4.391094 2.674803 3.348667 -5.238824 9.539190 -0.028065 -1.701050 -8.472662 -4.336673 8.165792 28.335990 -5.098000 9.923770 10.280280 -8.121537 -6.669021 4.058426 -29.277947 -14.942248 0.984216 3.496390 -63.035595 -2.185275 -4.216510 3.445377 -0.229270 0.801130 -0.479880 0.293350 8.885421 6.626591 3.581180 24.650060 7.204676 -5.354915 2.672049 74.733631 1.159958 1.764368 -2.155993 -0.242040 0.099540 0.129690 0.094120 
